<?xml version="1.0" encoding="UTF-8"?>
<svg width="512px" height="512px" viewBox="0 0 512 512" version="1.1" xmlns="http://www.w3.org/2000/svg" xmlns:xlink="http://www.w3.org/1999/xlink">
    <title>logo-colored</title>
    <defs>
        <linearGradient x1="-17.6692631%" y1="50%" x2="112.20011%" y2="50%" id="linearGradient-1">
            <stop stop-color="#12C2E9" offset="0%"></stop>
            <stop stop-color="#C471ED" offset="48.955744%"></stop>
            <stop stop-color="#F64F59" offset="100%"></stop>
        </linearGradient>
    </defs>
    <g id="Page-1" stroke="none" stroke-width="1" fill="none" fill-rule="evenodd">
        <g id="logo-colored" fill="url(#linearGradient-1)" fill-rule="nonzero">
            <g id="music-note">
                <path d="M209.305,106.481 C176.025,82.085 151.644,57.923 134.77,32.612 L117.481,6.681 C113.814,1.181 106.979,-1.27 100.654,0.645 C94.328,2.561 90.001,8.392 90.001,15.002 L90.001,250.074 C81.168,244.951 70.926,242.002 60.001,242.002 C26.917,242.002 0.001,268.918 0.001,302.002 C0.001,335.086 26.917,362.002 60.001,362.002 C93.085,362.002 120.001,335.086 120.001,302.002 L120.001,63.395 C137.928,86.494 161.49,108.629 191.568,130.678 C203.11,139.138 210.001,152.717 210.001,167.003 C210.001,191.816 189.814,212.003 165.001,212.003 C156.717,212.003 150.001,218.719 150.001,227.003 C150.001,235.287 156.717,242.003 165.001,242.003 C206.356,242.002 240.001,208.357 240.001,167.002 C240.001,143.195 228.525,120.57 209.305,106.481 Z M492.915,122.569 C497.439,121.289 502.3,122.204 506.048,125.038 C509.797,127.873 512,132.302 512,137.002 L512,137.002 L512,392.002 C512,425.086 485.084,452.002 452,452.002 C418.916,452.002 392,425.086 392,392.002 C392,358.918 418.916,332.002 452,332.002 C462.925,332.002 473.167,334.951 482,340.074 L482,340.074 L482,216.836 L300,268.346 L300,268.346 L300,452.002 C300,485.086 273.084,512.002 240,512.002 C206.916,512.002 180,485.086 180,452.002 C180,418.918 206.916,392.002 240,392.002 C250.925,392.002 261.167,394.951 270,400.074 L270,400.074 L270,197.002 C270,190.291 274.458,184.397 280.915,182.569 L280.915,182.569 Z M60.001,272.002 C76.543,272.002 90.001,285.46 90.001,302.002 C90.001,318.544 76.543,332.002 60.001,332.002 C43.459,332.002 30.001,318.544 30.001,302.002 C30.001,285.46 43.459,272.002 60.001,272.002 Z" id="Shape"></path>
            </g>
        </g>
    </g>
</svg>